<?xml version="1.0" encoding="utf-8"?>
<!-- Svg Vector Icons : http://www.onlinewebfonts.com/icon -->
<!DOCTYPE svg PUBLIC "-//W3C//DTD SVG 1.1//EN" "http://www.w3.org/Graphics/SVG/1.1/DTD/svg11.dtd">
<svg version="1.1" xmlns="http://www.w3.org/2000/svg" xmlns:xlink="http://www.w3.org/1999/xlink" x="0px" y="0px" viewBox="0 0 1000 1000" enable-background="new 0 0 1000 1000" xml:space="preserve">
<metadata> Svg Vector Icons : http://www.onlinewebfonts.com/icon </metadata>
<g><path d="M931.6,600.5c7.9-5,13.5-13.4,14.8-23.3c2.1-16.3-8.4-31.6-24.3-35.6l-9.2-2.3l13.8-40.9c3.3-9.9,1.7-20.9-4.4-29.4c-6.1-8.5-15.9-13.6-26.4-13.6h-55.1c-10.5,0-20.3,5-26.4,13.5c-6.1,8.5-7.7,19.4-4.4,29.4l5.5,16.4l-29.9-7.5c-13.2-16.7-37.3-34.4-73.8-34.4c-28.3,0-49.2,15.8-67.7,29.8c-20,15.1-37.2,28.2-65.2,28.2c-29.1,0-45.4-3.3-53.1-10.7c-9.5-9.1-14.3-31.8-14.3-67.4c0-51,0.3-84.4,0.5-103.5c0.3-27.2-13.9-52.9-37.2-67L202.3,117.2c-7.8-4.7-17.2-6-25.9-3.4c-8.7,2.5-16,8.6-20.1,16.7c-6.4,12.9-16.6,52.9,28.3,146.3c18.2,38,34.8,59.9,46.8,75.9c16.6,22,22.1,29.4,21.3,63.5c-1.4,60.5-81.3,71.2-97.3,72.8c-46.2,4.4-68.5,7.1-69.4,7.2c-10.1,1.2-19.1,7.1-24.2,15.9c-5.1,8.8-5.8,19.5-1.9,28.9c0.8,1.9,8.3,19,26.5,40.3l-53.8,16.9c-17.1,5.4-26.6,23.6-21.2,40.8c4.4,13.9,17.2,22.8,31,22.8c3.2,0,6.5-0.5,9.8-1.5l93.7-29.5c38.6,22.7,92.6,40.8,167.1,40.8c121.7,0,161.1-11.4,202.9-23.4c20.3-5.9,39.6-11.4,70.5-16.2c60.6-9.4,98-11.4,122.8-12.7c15.9-0.9,27.4-1.5,37.6-3.6c14.9-3.1,26.1-7.4,33.4-10.9l21.8,0.1c-26.4,41.5-55.5,100.5-55.5,158.8c0,97.9,79.3,123.7,121.2,123.7l0.5,0l0.5,0c7.8,0,35.3-1.2,62.6-16.1c37.8-20.7,58.6-58.9,58.6-107.6C990,703.4,958.8,642.2,931.6,600.5z M723.4,569.2h-2.9c-18,0-32.5-14.6-32.5-32.5c0-18,14.6-32.5,32.5-32.5h2.9c18,0,32.5,14.6,32.5,32.5C755.9,554.7,741.4,569.2,723.4,569.2z"/><g></g><g></g><g></g><g></g><g></g><g></g><g></g><g></g><g></g><g></g><g></g><g></g><g></g><g></g><g></g></g>
</svg>