<?xml version="1.0" encoding="utf-8"?>
<!-- Generator: Adobe Illustrator 18.0.0, SVG Export Plug-In . SVG Version: 6.00 Build 0)  -->
<!DOCTYPE svg PUBLIC "-//W3C//DTD SVG 1.1//EN" "http://www.w3.org/Graphics/SVG/1.1/DTD/svg11.dtd">
<svg version="1.1" id="Capa_1" xmlns="http://www.w3.org/2000/svg" xmlns:xlink="http://www.w3.org/1999/xlink" x="0px" y="0px"
	 viewBox="0 0 255.1 141.7" enable-background="new 0 0 255.1 141.7" xml:space="preserve">
<path fill="#F7F7F8" d="M78.6,12.7c25.2,0,50.4,0,75.6,0c0.4,0.1,0.8,0.2,1.2,0.3c1.8,0.5,3.3,1.5,4.7,2.7c2,1.7,4,3.5,5.9,5.3
	c3.3,3.2,6.5,6.4,9.3,10c1.9,2.3,2.8,4.9,2.8,8c-0.1,23.8,0,47.6-0.1,71.3c0,1.2-0.1,2.5-0.4,3.6c-1.3,4.8-4.4,7.9-9.2,9.2
	c-0.6,0.2-1.2,0.3-1.8,0.4c-29.3,0-58.7,0-88,0c-0.2-0.1-0.4-0.2-0.6-0.2c-1-0.3-2-0.5-2.9-0.8c-4.6-1.9-7.9-6.5-7.9-12.1
	c0-28.2,0-56.5,0-84.7c0-1.1,0.1-2.3,0.4-3.4c1.3-4.8,4.4-7.9,9.2-9.2C77.4,13,78,12.8,78.6,12.7z M122.6,68.1
	c-12.7,0-25.5,0-38.2,0c-2.7,0-4.5,1.8-4.5,4.5c0,14,0,28.1,0,42.1c0,0.4,0,0.9,0.1,1.3c0.4,1.7,1.9,3.4,4.7,3.4c24,0,48,0,72,0
	c1.3,0,2.6,0,3.9,0c2.3,0,3.9-1.2,4.5-3.4c0.1-0.5,0.1-0.9,0.1-1.4c0-13.9,0-27.9,0-41.8c0-1.1-0.2-2.1-0.9-3
	c-0.9-1.2-2.2-1.7-3.7-1.7C148,68.1,135.3,68.1,122.6,68.1z M120.5,55.4c9.1,0,18.2,0,27.2,0c0.5,0,1,0,1.4-0.1
	c2.2-0.5,3.4-2.2,3.4-4.5c0-9.7,0-19.4,0-29.1c0-2.5-1.7-4.8-4.7-4.8c-18.2,0-36.4,0-54.6,0c-0.5,0-1.1,0-1.6,0.2
	c-2,0.6-3.2,2.2-3.2,4.4c0,9.7,0,19.5,0,29.2c0,0.6,0.1,1.2,0.2,1.7c0.6,1.9,2.2,3,4.5,3C102.3,55.4,111.4,55.4,120.5,55.4z"/>
<path fill="#F7F7F8" d="M131.1,36.2c0-4.7,0-9.4,0-14.1c0-0.8,0-0.8,0.8-0.8c3.7,0,7.5,0,11.2,0c0.6,0,0.7,0.2,0.7,0.7
	c0,9.5,0,18.9,0,28.4c0,0.5-0.1,0.7-0.7,0.7c-3.8,0-7.6,0-11.5,0c-0.5,0-0.6-0.2-0.6-0.7C131.2,45.6,131.2,40.9,131.1,36.2
	C131.2,36.2,131.1,36.2,131.1,36.2z"/>
</svg>
