<?xml version="1.0" encoding="utf-8"?>
<!-- Generator: Adobe Illustrator 18.0.0, SVG Export Plug-In . SVG Version: 6.00 Build 0)  -->
<!DOCTYPE svg PUBLIC "-//W3C//DTD SVG 1.1//EN" "http://www.w3.org/Graphics/SVG/1.1/DTD/svg11.dtd">
<svg version="1.1" id="Capa_1" xmlns="http://www.w3.org/2000/svg" xmlns:xlink="http://www.w3.org/1999/xlink" x="0px" y="0px"
	 viewBox="0 0 255.1 141.7" enable-background="new 0 0 255.1 141.7" xml:space="preserve">
<path d="M144,18.6c1.7,1.6,3.3,3.1,4.9,4.5c4.4-3.9,4.4-3.9,10.4,0.9c2.8-2.8,5.6-5.7,9.6-9.8c-2.4-1.9-5.2-3.9-7.7-6.2
	c-0.8-0.7-0.6-2.5-0.8-3.8c1.5,0.1,3.5-0.5,4.3,0.3c6.4,6.1,12.6,12.4,18.7,18.7c0.7,0.7,0.4,2.3,0.6,3.5c-1.4,0-3.2,0.7-4,0
	c-2.6-2.3-4.8-5.1-7-7.6c-3.5,3.4-6.5,6.3-9.6,9.3c2.9,3.1,7.5,6.1,1.2,10.2c1.5,1.7,2.8,3.2,4.6,5.1c-8,8.1-15.9,16-23.8,24
	c-12,12-24,24-36,36.1c-3.1,3.1-6.4,4.7-10.7,2.3c-0.8-0.4-1.8-0.5-2.7-0.4c-2.7,0.2-5.4,0.6-8.2,0.9c0-0.4-0.1-0.8-0.1-1.2
	c-9,8.8-18.1,17.6-27,26.5c-3,2.9-6,4.6-10.4,1.7c11.3-10.7,22.4-21.2,33.6-31.8c-0.9-0.6-1.8-1.1-2.7-1.7c0.4-2.9,0.8-5.8,1.1-8.7
	c0.1-0.6,0.1-1.3-0.2-1.8c-3-4.8-0.9-8.3,2.6-11.8c18.7-18.5,37.2-37.2,55.8-55.8C141.5,20.9,142.7,19.8,144,18.6z M110.5,58.2
	c6.4,6.5,12.5,12.7,18.1,18.3c10.7-10.5,21.5-21.2,32.1-31.7c-5.9-6-11.9-12.1-18.2-18.5c-1,1.1-2,2.1-2.7,2.9
	c0.3,3.3,5.9,3.8,3.6,8.5c-2.4-2.1-4.3-3.8-6.6-5.8c-1.2,1-2.1,1.8-3.1,2.7c2.3,2.5,4.1,4.4,6.3,6.8c-4.8,1.9-5.5-3.2-8.6-3.9
	c-0.6,0.5-1.3,1.1-2,1.8c-0.3,0.3-0.4,0.9-0.6,1.3c4.7,5.3,4.7,5.3,3.2,7.5c-1.9-1.8-3.8-3.6-5.9-5.6c-1,1.2-1.9,2.2-2.8,3.3
	c1.9,2.1,3.6,4,5.4,5.9c-0.3,0.5-0.7,1-1,1.5c-2.3-1.6-4.6-3.2-7.4-5.1c-0.8,0.8-1.7,1.7-2.7,2.7c2.2,2.3,4,4.2,5.7,6.1
	c-0.4,0.5-0.7,1.1-1.1,1.6c-2.3-1.6-4.5-3.2-7.2-5C113.4,55.1,111.7,56.9,110.5,58.2z"/>
</svg>
