<?xml version="1.0" encoding="utf-8"?>
<!-- Generator: Adobe Illustrator 18.0.0, SVG Export Plug-In . SVG Version: 6.00 Build 0)  -->
<!DOCTYPE svg PUBLIC "-//W3C//DTD SVG 1.1//EN" "http://www.w3.org/Graphics/SVG/1.1/DTD/svg11.dtd">
<svg version="1.1" id="Capa_1" xmlns="http://www.w3.org/2000/svg" xmlns:xlink="http://www.w3.org/1999/xlink" x="0px" y="0px"
	 viewBox="0 0 255.1 141.7" enable-background="new 0 0 255.1 141.7" xml:space="preserve">
<path d="M107.4,140.7c1.4-4.5,2.8-8.5,3.8-12.7c1.7-7.5,6.2-14.2,12.6-16.5c6.7-2.4,11-7.7,17-10.3c3.4-1.4,7.8-1.6,11.5-0.9
	c7.3,1.3,14.5,3.7,21.7,5.6c1.1,0.3,2.5,0.9,3.4,0.6c4.7-2,9.8-3.5,13.7-6.5c3.5-2.7,5.7-7.2,8.1-11.1c1.4-2.3,0.6-4.2-2-5.7
	c-7.4-4.4-14.9-8.8-21.8-13.9c-3.5-2.5-7.3-6.2-8.3-10.1c-2.5-9-8.2-15-15.1-20.4c-3.1-2.4-7.4-5.1-8.1-8.3
	c-1.7-7.4-4.1-15.2-0.9-23c0.6-1.4,0-3.3,0-5c-1.5,0.4-3.1,0.6-4.4,1.4c-3.5,2.3-6.7,4.8-10.8,7.8c-0.1-2.4-0.3-4.6-0.4-6.7
	c-0.1-3.4-1.8-4.2-4.5-2.4c-2.9,1.9-5.8,3.9-8.3,6.3c-4.2,3.8-8.3,7.7-12,12C90.5,34.8,76,44.9,58.5,50.6c-3,1-4.3,2.5-4.7,6
	C50.1,93.2,72,128.1,107.4,140.7z"/>
</svg>
